{"title":"Cast Away 2000 DVDrip English Klam","uid":7164373,"size":2272712922,"categoryP":"video","categoryS":"movies","magnet":"?xt=urn:btih:f7d11b45317584de35b614a47be64388f2a830db&amp;dn=Cast+Away+2000+DVDrip+English+Klam&amp;tr=udp%3A%2F%2Ftracker.openbittorrent.com%3A80&amp;tr=udp%3A%2F%2Fopen.demonii.com%3A1337&amp;tr=udp%3A%2F%2Ftracker.coppersurfer.tk%3A6969&amp;tr=udp%3A%2F%2Fexodus.desync.com%3A6969","seeders":1,"leechers":0,"uploader":"Klambake","files":-1,"time":1333724387,"description":"With: Tom Hanks, Helen Hunt and Wilson the Volleyball\n\nChuck Noland is een manager bij FEDEx. Boven de Stille Oceaan crasht zijn vliegtuig. Hij overleeft de ramp en spoelt aan op een onbewoond eiland. Terwijl zijn naasten in de veronderstelling leven dat hij dood is, bedenkt hij manieren om te overleven en te ontsnappen.\n\nA FedEx executive must transform himself physically and emotionally to survive a crash landing on a deserted island. \n\n------------------------ Dutch Friends ------------------------\n---------------------------------------------------------------\n- Bezoek ook eens mijn vrienden op: &lt;a href=&quot; http://www.Film-Test.nl&quot; rel=&quot;nofollow&quot; target=&quot;_NEW&quot;&gt; http://www.Film-Test.nl&lt;/a&gt; --\n----- voor mijn Nederlandse Sync. ondertitels ---- en meer ----\n------- http://www.Film-Test.nl ---- voor Films en meer -------\n---------------------------------------------------------------\n\nGeneral:\n\nComplete name                    : Cast AwayCast Away.avi\nFormat                           : AVI\nFormat/Info                      : Audio Video Interleave\nFile size                        : 2.12 GiB\nDuration                         : 2h 17mn\nOverall bit rate                 : 2 197 Kbps\n\nVideo:\n\nFormat                           : MPEG-4 Visual\nFormat profile                   : Simple@L3\nFormat settings, BVOP            : No\nFormat settings, QPel            : No\nFormat settings, GMC             : No warppoints\nFormat settings, Matrix          : Default (H.263)\nCodec ID                         : XVID\nCodec ID/Hint                    : XviD\nDuration                         : 2h 17mn\nBit rate                         : 1 738 Kbps\nWidth                            : 652 pixels\nHeight                           : 352 pixels\nDisplay aspect ratio             : 1.852\nFrame rate                       : 25.000 fps\nColor space                      : YUV\nChroma subsampling               : 4:2:0\nBit depth                        : 8 bits\nScan type                        : Progressive\nCompression mode                 : Lossy\nBits/(Pixel*Frame)               : 0.303\nStream size                      : 1.67 GiB (79%)\nWriting library                  : XviD 1.1.2 (UTC 2006-11-01)\n\nAudio:\n\nFormat                           : AC-3\nFormat/Info                      : Audio Coding 3\nMode extension                   : CM (complete main)\nCodec ID                         : 2000\nDuration                         : 2h 17mn\nBit rate mode                    : Constant\nBit rate                         : 448 Kbps\nChannel(s)                       : 6 channels\nChannel positions                : Front: L C R, Side: L R, LFE\nSampling rate                    : 48.0 KHz\nBit depth                        : 16 bits\nCompression mode                 : Lossy\nStream size                      : 442 MiB (20%)\nAlignment                        : Aligned on interleaves\nInterleave, duration             : 32 ms (0.80 video frame)\n\n","torrent":{"xt":"urn:btih:f7d11b45317584de35b614a47be64388f2a830db","amp;dn":"Cast+Away+2000+DVDrip+English+Klam","amp;tr":["udp%3A%2F%2Ftracker.openbittorrent.com%3A80","udp%3A%2F%2Fopen.demonii.com%3A1337","udp%3A%2F%2Ftracker.coppersurfer.tk%3A6969","udp%3A%2F%2Fexodus.desync.com%3A6969"],"infoHash":"f7d11b45317584de35b614a47be64388f2a830db","infoHashBuffer":{"type":"Buffer","data":[247,209,27,69,49,117,132,222,53,182,20,164,123,230,67,136,242,168,48,219]},"announce":[],"urlList":[]}}